<mxfile host="app.diagrams.net" modified="2024-03-27T07:30:56.156Z" agent="Mozilla/5.0 (Windows NT 10.0; Win64; x64) AppleWebKit/537.36 (KHTML, like Gecko) Chrome/123.0.0.0 Safari/537.36" etag="vFoVsrxqTW0gB0e-qfr7" version="23.1.6" type="device">
  <diagram name="Page-1" id="1-MCIncybh8Ae_PBPlWq">
    <mxGraphModel dx="1050" dy="609" grid="1" gridSize="10" guides="1" tooltips="1" connect="1" arrows="1" fold="1" page="1" pageScale="1" pageWidth="827" pageHeight="1169" math="0" shadow="0">
      <root>
        <mxCell id="0" />
        <mxCell id="1" parent="0" />
        <mxCell id="vbW_kp2UAvd0SJ8NnwOy-15" style="edgeStyle=orthogonalEdgeStyle;rounded=0;orthogonalLoop=1;jettySize=auto;html=1;exitX=0.5;exitY=0.5;exitDx=0;exitDy=0;exitPerimeter=0;entryX=1;entryY=0.5;entryDx=0;entryDy=0;" edge="1" parent="1" source="vbW_kp2UAvd0SJ8NnwOy-1" target="vbW_kp2UAvd0SJ8NnwOy-13">
          <mxGeometry relative="1" as="geometry" />
        </mxCell>
        <mxCell id="vbW_kp2UAvd0SJ8NnwOy-94" style="edgeStyle=orthogonalEdgeStyle;rounded=0;orthogonalLoop=1;jettySize=auto;html=1;entryX=1;entryY=0.5;entryDx=0;entryDy=0;" edge="1" parent="1" source="vbW_kp2UAvd0SJ8NnwOy-1" target="vbW_kp2UAvd0SJ8NnwOy-54">
          <mxGeometry relative="1" as="geometry" />
        </mxCell>
        <mxCell id="vbW_kp2UAvd0SJ8NnwOy-96" style="edgeStyle=orthogonalEdgeStyle;rounded=0;orthogonalLoop=1;jettySize=auto;html=1;entryX=1;entryY=0.5;entryDx=0;entryDy=0;" edge="1" parent="1" source="vbW_kp2UAvd0SJ8NnwOy-1" target="vbW_kp2UAvd0SJ8NnwOy-55">
          <mxGeometry relative="1" as="geometry" />
        </mxCell>
        <mxCell id="vbW_kp2UAvd0SJ8NnwOy-113" style="edgeStyle=orthogonalEdgeStyle;rounded=0;orthogonalLoop=1;jettySize=auto;html=1;entryX=1;entryY=0.5;entryDx=0;entryDy=0;" edge="1" parent="1" source="vbW_kp2UAvd0SJ8NnwOy-1" target="vbW_kp2UAvd0SJ8NnwOy-12">
          <mxGeometry relative="1" as="geometry" />
        </mxCell>
        <mxCell id="vbW_kp2UAvd0SJ8NnwOy-1" value="Admin" style="shape=umlActor;verticalLabelPosition=bottom;verticalAlign=top;html=1;outlineConnect=0;" vertex="1" parent="1">
          <mxGeometry x="760" y="280" width="30" height="60" as="geometry" />
        </mxCell>
        <mxCell id="vbW_kp2UAvd0SJ8NnwOy-109" style="edgeStyle=orthogonalEdgeStyle;rounded=0;orthogonalLoop=1;jettySize=auto;html=1;entryX=0.5;entryY=1;entryDx=0;entryDy=0;" edge="1" parent="1" source="vbW_kp2UAvd0SJ8NnwOy-6" target="vbW_kp2UAvd0SJ8NnwOy-55">
          <mxGeometry relative="1" as="geometry" />
        </mxCell>
        <mxCell id="vbW_kp2UAvd0SJ8NnwOy-110" style="edgeStyle=orthogonalEdgeStyle;rounded=0;orthogonalLoop=1;jettySize=auto;html=1;entryX=1;entryY=1;entryDx=0;entryDy=0;" edge="1" parent="1" source="vbW_kp2UAvd0SJ8NnwOy-6" target="vbW_kp2UAvd0SJ8NnwOy-11">
          <mxGeometry relative="1" as="geometry" />
        </mxCell>
        <mxCell id="vbW_kp2UAvd0SJ8NnwOy-111" value="Include" style="edgeLabel;html=1;align=center;verticalAlign=middle;resizable=0;points=[];" vertex="1" connectable="0" parent="vbW_kp2UAvd0SJ8NnwOy-110">
          <mxGeometry x="-0.3125" y="1" relative="1" as="geometry">
            <mxPoint as="offset" />
          </mxGeometry>
        </mxCell>
        <mxCell id="vbW_kp2UAvd0SJ8NnwOy-114" style="edgeStyle=orthogonalEdgeStyle;rounded=0;orthogonalLoop=1;jettySize=auto;html=1;entryX=1;entryY=1;entryDx=0;entryDy=0;" edge="1" parent="1" source="vbW_kp2UAvd0SJ8NnwOy-6" target="vbW_kp2UAvd0SJ8NnwOy-12">
          <mxGeometry relative="1" as="geometry">
            <Array as="points">
              <mxPoint x="745" y="790" />
              <mxPoint x="422" y="790" />
            </Array>
          </mxGeometry>
        </mxCell>
        <mxCell id="vbW_kp2UAvd0SJ8NnwOy-6" value="Manager" style="shape=umlActor;verticalLabelPosition=bottom;verticalAlign=top;html=1;outlineConnect=0;" vertex="1" parent="1">
          <mxGeometry x="730" y="600" width="30" height="60" as="geometry" />
        </mxCell>
        <mxCell id="vbW_kp2UAvd0SJ8NnwOy-69" style="edgeStyle=orthogonalEdgeStyle;rounded=0;orthogonalLoop=1;jettySize=auto;html=1;entryX=0;entryY=0.5;entryDx=0;entryDy=0;" edge="1" parent="1" source="vbW_kp2UAvd0SJ8NnwOy-7" target="vbW_kp2UAvd0SJ8NnwOy-79">
          <mxGeometry relative="1" as="geometry">
            <mxPoint x="340" y="330" as="targetPoint" />
          </mxGeometry>
        </mxCell>
        <mxCell id="vbW_kp2UAvd0SJ8NnwOy-82" style="edgeStyle=orthogonalEdgeStyle;rounded=0;orthogonalLoop=1;jettySize=auto;html=1;entryX=0;entryY=0.5;entryDx=0;entryDy=0;" edge="1" parent="1" source="vbW_kp2UAvd0SJ8NnwOy-7" target="vbW_kp2UAvd0SJ8NnwOy-62">
          <mxGeometry relative="1" as="geometry" />
        </mxCell>
        <mxCell id="vbW_kp2UAvd0SJ8NnwOy-83" style="edgeStyle=orthogonalEdgeStyle;rounded=0;orthogonalLoop=1;jettySize=auto;html=1;entryX=0;entryY=0.5;entryDx=0;entryDy=0;" edge="1" parent="1" source="vbW_kp2UAvd0SJ8NnwOy-7" target="vbW_kp2UAvd0SJ8NnwOy-66">
          <mxGeometry relative="1" as="geometry" />
        </mxCell>
        <mxCell id="vbW_kp2UAvd0SJ8NnwOy-90" style="edgeStyle=orthogonalEdgeStyle;rounded=0;orthogonalLoop=1;jettySize=auto;html=1;entryX=0;entryY=0.5;entryDx=0;entryDy=0;" edge="1" parent="1" source="vbW_kp2UAvd0SJ8NnwOy-7" target="vbW_kp2UAvd0SJ8NnwOy-89">
          <mxGeometry relative="1" as="geometry" />
        </mxCell>
        <mxCell id="vbW_kp2UAvd0SJ8NnwOy-117" style="edgeStyle=orthogonalEdgeStyle;rounded=0;orthogonalLoop=1;jettySize=auto;html=1;entryX=0;entryY=0.5;entryDx=0;entryDy=0;" edge="1" parent="1" source="vbW_kp2UAvd0SJ8NnwOy-7" target="vbW_kp2UAvd0SJ8NnwOy-12">
          <mxGeometry relative="1" as="geometry">
            <Array as="points">
              <mxPoint x="160" y="330" />
              <mxPoint x="160" y="750" />
            </Array>
          </mxGeometry>
        </mxCell>
        <mxCell id="vbW_kp2UAvd0SJ8NnwOy-7" value="User" style="shape=umlActor;verticalLabelPosition=bottom;verticalAlign=top;html=1;outlineConnect=0;" vertex="1" parent="1">
          <mxGeometry x="90" y="300" width="30" height="60" as="geometry" />
        </mxCell>
        <mxCell id="vbW_kp2UAvd0SJ8NnwOy-101" style="edgeStyle=orthogonalEdgeStyle;rounded=0;orthogonalLoop=1;jettySize=auto;html=1;entryX=0;entryY=1;entryDx=0;entryDy=0;" edge="1" parent="1" source="vbW_kp2UAvd0SJ8NnwOy-8" target="vbW_kp2UAvd0SJ8NnwOy-11">
          <mxGeometry relative="1" as="geometry">
            <Array as="points">
              <mxPoint x="310" y="620" />
              <mxPoint x="310" y="134" />
            </Array>
          </mxGeometry>
        </mxCell>
        <mxCell id="vbW_kp2UAvd0SJ8NnwOy-102" value="Include" style="edgeLabel;html=1;align=center;verticalAlign=middle;resizable=0;points=[];" vertex="1" connectable="0" parent="vbW_kp2UAvd0SJ8NnwOy-101">
          <mxGeometry x="-0.4031" relative="1" as="geometry">
            <mxPoint as="offset" />
          </mxGeometry>
        </mxCell>
        <mxCell id="vbW_kp2UAvd0SJ8NnwOy-103" style="edgeStyle=orthogonalEdgeStyle;rounded=0;orthogonalLoop=1;jettySize=auto;html=1;entryX=0.5;entryY=1;entryDx=0;entryDy=0;" edge="1" parent="1" source="vbW_kp2UAvd0SJ8NnwOy-8" target="vbW_kp2UAvd0SJ8NnwOy-62">
          <mxGeometry relative="1" as="geometry">
            <Array as="points">
              <mxPoint x="340" y="620" />
              <mxPoint x="340" y="440" />
              <mxPoint x="390" y="440" />
            </Array>
          </mxGeometry>
        </mxCell>
        <mxCell id="vbW_kp2UAvd0SJ8NnwOy-106" style="edgeStyle=orthogonalEdgeStyle;rounded=0;orthogonalLoop=1;jettySize=auto;html=1;" edge="1" parent="1" source="vbW_kp2UAvd0SJ8NnwOy-8" target="vbW_kp2UAvd0SJ8NnwOy-66">
          <mxGeometry relative="1" as="geometry">
            <Array as="points">
              <mxPoint x="360" y="630" />
            </Array>
          </mxGeometry>
        </mxCell>
        <mxCell id="vbW_kp2UAvd0SJ8NnwOy-108" style="edgeStyle=orthogonalEdgeStyle;rounded=0;orthogonalLoop=1;jettySize=auto;html=1;" edge="1" parent="1" source="vbW_kp2UAvd0SJ8NnwOy-8" target="vbW_kp2UAvd0SJ8NnwOy-68">
          <mxGeometry relative="1" as="geometry" />
        </mxCell>
        <mxCell id="vbW_kp2UAvd0SJ8NnwOy-118" style="edgeStyle=orthogonalEdgeStyle;rounded=0;orthogonalLoop=1;jettySize=auto;html=1;entryX=0;entryY=1;entryDx=0;entryDy=0;" edge="1" parent="1" source="vbW_kp2UAvd0SJ8NnwOy-8" target="vbW_kp2UAvd0SJ8NnwOy-12">
          <mxGeometry relative="1" as="geometry">
            <Array as="points">
              <mxPoint x="115" y="780" />
              <mxPoint x="338" y="780" />
            </Array>
          </mxGeometry>
        </mxCell>
        <mxCell id="vbW_kp2UAvd0SJ8NnwOy-8" value="Kasir" style="shape=umlActor;verticalLabelPosition=bottom;verticalAlign=top;html=1;outlineConnect=0;" vertex="1" parent="1">
          <mxGeometry x="100" y="590" width="30" height="60" as="geometry" />
        </mxCell>
        <mxCell id="vbW_kp2UAvd0SJ8NnwOy-59" style="edgeStyle=orthogonalEdgeStyle;rounded=0;orthogonalLoop=1;jettySize=auto;html=1;entryX=0.5;entryY=0;entryDx=0;entryDy=0;" edge="1" parent="1" source="vbW_kp2UAvd0SJ8NnwOy-9" target="vbW_kp2UAvd0SJ8NnwOy-79">
          <mxGeometry relative="1" as="geometry">
            <mxPoint x="400" y="310" as="targetPoint" />
            <Array as="points">
              <mxPoint x="320" y="190" />
              <mxPoint x="320" y="310" />
            </Array>
          </mxGeometry>
        </mxCell>
        <mxCell id="vbW_kp2UAvd0SJ8NnwOy-85" style="edgeStyle=orthogonalEdgeStyle;rounded=0;orthogonalLoop=1;jettySize=auto;html=1;entryX=0;entryY=0.5;entryDx=0;entryDy=0;" edge="1" parent="1" source="vbW_kp2UAvd0SJ8NnwOy-9" target="vbW_kp2UAvd0SJ8NnwOy-11">
          <mxGeometry relative="1" as="geometry" />
        </mxCell>
        <mxCell id="vbW_kp2UAvd0SJ8NnwOy-9" value="Pengunjung" style="shape=umlActor;verticalLabelPosition=bottom;verticalAlign=top;html=1;outlineConnect=0;" vertex="1" parent="1">
          <mxGeometry x="100" y="160" width="30" height="60" as="geometry" />
        </mxCell>
        <mxCell id="vbW_kp2UAvd0SJ8NnwOy-88" style="edgeStyle=orthogonalEdgeStyle;rounded=0;orthogonalLoop=1;jettySize=auto;html=1;" edge="1" parent="1" source="vbW_kp2UAvd0SJ8NnwOy-11" target="vbW_kp2UAvd0SJ8NnwOy-86">
          <mxGeometry relative="1" as="geometry" />
        </mxCell>
        <mxCell id="vbW_kp2UAvd0SJ8NnwOy-11" value="Login" style="ellipse;whiteSpace=wrap;html=1;" vertex="1" parent="1">
          <mxGeometry x="320" y="100" width="120" height="40" as="geometry" />
        </mxCell>
        <mxCell id="vbW_kp2UAvd0SJ8NnwOy-12" value="Log out" style="ellipse;whiteSpace=wrap;html=1;" vertex="1" parent="1">
          <mxGeometry x="320" y="730" width="120" height="40" as="geometry" />
        </mxCell>
        <mxCell id="vbW_kp2UAvd0SJ8NnwOy-16" style="edgeStyle=orthogonalEdgeStyle;rounded=0;orthogonalLoop=1;jettySize=auto;html=1;exitX=0.5;exitY=0;exitDx=0;exitDy=0;entryX=1;entryY=0.5;entryDx=0;entryDy=0;" edge="1" parent="1" source="vbW_kp2UAvd0SJ8NnwOy-13" target="vbW_kp2UAvd0SJ8NnwOy-11">
          <mxGeometry relative="1" as="geometry" />
        </mxCell>
        <mxCell id="vbW_kp2UAvd0SJ8NnwOy-17" value="Iclude" style="edgeLabel;html=1;align=center;verticalAlign=middle;resizable=0;points=[];" vertex="1" connectable="0" parent="vbW_kp2UAvd0SJ8NnwOy-16">
          <mxGeometry x="-0.2727" y="-1" relative="1" as="geometry">
            <mxPoint as="offset" />
          </mxGeometry>
        </mxCell>
        <mxCell id="vbW_kp2UAvd0SJ8NnwOy-61" style="edgeStyle=orthogonalEdgeStyle;rounded=0;orthogonalLoop=1;jettySize=auto;html=1;entryX=1;entryY=0.5;entryDx=0;entryDy=0;" edge="1" parent="1" source="vbW_kp2UAvd0SJ8NnwOy-13" target="vbW_kp2UAvd0SJ8NnwOy-79">
          <mxGeometry relative="1" as="geometry">
            <mxPoint x="460" y="330" as="targetPoint" />
          </mxGeometry>
        </mxCell>
        <mxCell id="vbW_kp2UAvd0SJ8NnwOy-13" value="Pengelolaan Data" style="ellipse;whiteSpace=wrap;html=1;" vertex="1" parent="1">
          <mxGeometry x="550" y="210" width="120" height="40" as="geometry" />
        </mxCell>
        <mxCell id="vbW_kp2UAvd0SJ8NnwOy-97" style="edgeStyle=orthogonalEdgeStyle;rounded=0;orthogonalLoop=1;jettySize=auto;html=1;" edge="1" parent="1" source="vbW_kp2UAvd0SJ8NnwOy-54" target="vbW_kp2UAvd0SJ8NnwOy-55">
          <mxGeometry relative="1" as="geometry" />
        </mxCell>
        <mxCell id="vbW_kp2UAvd0SJ8NnwOy-54" value="Pengelolaan Topup&amp;nbsp;" style="ellipse;whiteSpace=wrap;html=1;" vertex="1" parent="1">
          <mxGeometry x="560" y="360" width="120" height="40" as="geometry" />
        </mxCell>
        <mxCell id="vbW_kp2UAvd0SJ8NnwOy-55" value="Histori Transaksi&lt;br&gt;&amp;nbsp;&amp;amp; Topup" style="ellipse;whiteSpace=wrap;html=1;" vertex="1" parent="1">
          <mxGeometry x="560" y="500" width="140" height="40" as="geometry" />
        </mxCell>
        <mxCell id="vbW_kp2UAvd0SJ8NnwOy-62" value="Pemesanan Tiket" style="ellipse;whiteSpace=wrap;html=1;" vertex="1" parent="1">
          <mxGeometry x="330" y="380" width="120" height="40" as="geometry" />
        </mxCell>
        <mxCell id="vbW_kp2UAvd0SJ8NnwOy-91" style="edgeStyle=orthogonalEdgeStyle;rounded=0;orthogonalLoop=1;jettySize=auto;html=1;" edge="1" parent="1" source="vbW_kp2UAvd0SJ8NnwOy-66" target="vbW_kp2UAvd0SJ8NnwOy-89">
          <mxGeometry relative="1" as="geometry" />
        </mxCell>
        <mxCell id="vbW_kp2UAvd0SJ8NnwOy-98" style="edgeStyle=orthogonalEdgeStyle;rounded=0;orthogonalLoop=1;jettySize=auto;html=1;entryX=0;entryY=0.5;entryDx=0;entryDy=0;" edge="1" parent="1" source="vbW_kp2UAvd0SJ8NnwOy-66" target="vbW_kp2UAvd0SJ8NnwOy-55">
          <mxGeometry relative="1" as="geometry" />
        </mxCell>
        <mxCell id="vbW_kp2UAvd0SJ8NnwOy-66" value="Transaksi" style="ellipse;whiteSpace=wrap;html=1;" vertex="1" parent="1">
          <mxGeometry x="330" y="450" width="120" height="40" as="geometry" />
        </mxCell>
        <mxCell id="vbW_kp2UAvd0SJ8NnwOy-68" value="Cetak Tiket" style="ellipse;whiteSpace=wrap;html=1;" vertex="1" parent="1">
          <mxGeometry x="320" y="650" width="120" height="40" as="geometry" />
        </mxCell>
        <mxCell id="vbW_kp2UAvd0SJ8NnwOy-76" style="edgeStyle=orthogonalEdgeStyle;rounded=0;orthogonalLoop=1;jettySize=auto;html=1;entryX=0.617;entryY=0.975;entryDx=0;entryDy=0;entryPerimeter=0;" edge="1" parent="1">
          <mxGeometry relative="1" as="geometry">
            <mxPoint x="130" y="331" as="sourcePoint" />
            <mxPoint x="384.03999999999996" y="140" as="targetPoint" />
          </mxGeometry>
        </mxCell>
        <mxCell id="vbW_kp2UAvd0SJ8NnwOy-78" value="Include&amp;nbsp;" style="edgeLabel;html=1;align=center;verticalAlign=middle;resizable=0;points=[];" vertex="1" connectable="0" parent="vbW_kp2UAvd0SJ8NnwOy-76">
          <mxGeometry x="0.3384" y="-1" relative="1" as="geometry">
            <mxPoint as="offset" />
          </mxGeometry>
        </mxCell>
        <mxCell id="vbW_kp2UAvd0SJ8NnwOy-79" value="Daftar Film" style="ellipse;whiteSpace=wrap;html=1;" vertex="1" parent="1">
          <mxGeometry x="330" y="310" width="120" height="40" as="geometry" />
        </mxCell>
        <mxCell id="vbW_kp2UAvd0SJ8NnwOy-86" value="Registrasi" style="ellipse;whiteSpace=wrap;html=1;" vertex="1" parent="1">
          <mxGeometry x="320" y="20" width="120" height="40" as="geometry" />
        </mxCell>
        <mxCell id="vbW_kp2UAvd0SJ8NnwOy-93" style="edgeStyle=orthogonalEdgeStyle;rounded=0;orthogonalLoop=1;jettySize=auto;html=1;entryX=0;entryY=0.5;entryDx=0;entryDy=0;" edge="1" parent="1" source="vbW_kp2UAvd0SJ8NnwOy-89" target="vbW_kp2UAvd0SJ8NnwOy-54">
          <mxGeometry relative="1" as="geometry" />
        </mxCell>
        <mxCell id="vbW_kp2UAvd0SJ8NnwOy-89" value="Topup" style="ellipse;whiteSpace=wrap;html=1;" vertex="1" parent="1">
          <mxGeometry x="330" y="530" width="120" height="40" as="geometry" />
        </mxCell>
        <mxCell id="vbW_kp2UAvd0SJ8NnwOy-120" value="&lt;b&gt;&lt;font style=&quot;font-size: 16px;&quot;&gt;Use Case Pemesanan Tiket Bioskop&lt;/font&gt;&lt;/b&gt;" style="text;html=1;align=center;verticalAlign=middle;whiteSpace=wrap;rounded=0;" vertex="1" parent="1">
          <mxGeometry x="40" y="20" width="197.5" height="70" as="geometry" />
        </mxCell>
      </root>
    </mxGraphModel>
  </diagram>
</mxfile>
